<svg width="100" height="100" viewBox="0 0 100 100" fill="none" xmlns="http://www.w3.org/2000/svg">
<circle cx="50" cy="50" r="47" stroke="#B49F81" stroke-width="6"/>
<path d="M67.5488 66.5352C67.5488 67.5117 66.5625 68 64.5898 68H36.1133C36.6016 64.0938 39.6484 58.1855 45.2539 50.2754C51.7188 41.4473 55.1855 36.6328 55.6543 35.832C56.1426 35.0312 56.4648 34.4453 56.6211 34.0742C56.8945 33.4883 57.0312 32.8926 57.0312 32.2871C57.0312 31.6816 56.8945 31.1152 56.6211 30.5879C56.3672 30.041 55.9766 29.582 55.4492 29.2109C54.2969 28.3906 52.6562 27.9805 50.5273 27.9805C48.5156 27.9805 46.7773 28.293 45.3125 28.918C42.832 29.9922 41.2402 31.1152 40.5371 32.2871C40.0098 33.1074 39.4043 33.5176 38.7207 33.5176C38.0371 33.5176 37.6953 33.0977 37.6953 32.2578C37.6953 31.2227 38.6328 30.0898 40.5078 28.8594C43.4766 26.9648 47.002 26.0176 51.084 26.0176C56.0645 26.0176 60.0586 27.082 63.0664 29.2109C65.9375 31.2422 67.373 33.8398 67.373 37.0039C67.373 38.8203 67.1191 40.334 66.6113 41.5449C66.123 42.7363 65.6445 43.7617 65.1758 44.6211C64.707 45.4805 64.1406 46.4375 63.4766 47.4922L57.8516 55.9004C55.1562 59.8652 53.2715 63.1953 52.1973 65.8906H60.7812C61.875 65.8906 62.8906 65.8027 63.8281 65.627C64.9805 65.4121 65.7715 65.3047 66.2012 65.3047C66.6504 65.3047 66.9824 65.4414 67.1973 65.7148C67.4316 65.9688 67.5488 66.2422 67.5488 66.5352Z" fill="#B49F81"/>
</svg>
