<svg width="100" height="100" viewBox="0 0 100 100" fill="none" xmlns="http://www.w3.org/2000/svg">
<circle cx="50" cy="50" r="47" stroke="#B49F81" stroke-width="6"/>
<path d="M51.5527 43.8594C52.0215 43.8594 52.4707 43.8398 52.9004 43.8008V28.2148L52.2559 28.1562C52.041 28.1367 51.8359 28.127 51.6406 28.127C51.4453 28.127 51.0254 28.127 50.3809 28.127C49.7559 28.127 48.9746 28.1953 48.0371 28.332C47.0996 28.4492 46.25 28.625 45.4883 28.8594C43.9648 29.2891 42.8906 29.8652 42.2656 30.5879C41.6797 31.2715 41.123 31.6328 40.5957 31.6719C39.541 31.75 38.9941 31.4082 38.9551 30.6465C38.877 29.4746 40.5176 28.3125 43.877 27.1602C46.2402 26.3984 48.8574 26.0176 51.7285 26.0176C54.6191 26.0176 57.0312 26.2715 58.9648 26.7793C60.918 27.2871 62.5293 27.9805 63.7988 28.8594C66.3184 30.5781 67.5781 32.9219 67.5781 35.8906C67.5781 38.8008 66.1035 41.2422 63.1543 43.2148C62.1387 43.8984 60.9473 44.4648 59.5801 44.9141C64.0723 46.3594 67.0215 48.8496 68.4277 52.3848C68.877 53.5566 69.1016 54.9336 69.1016 56.5156C69.1016 58.0977 68.6914 59.6504 67.8711 61.1738C67.0703 62.6973 65.9082 64.0059 64.3848 65.0996C61.1816 67.4043 56.8164 68.5566 51.2891 68.5566C46.543 68.5566 42.4414 67.2383 38.9844 64.6016C37.7734 63.6836 36.9629 62.6875 36.5527 61.6133C36.4355 61.3008 36.3867 61.0273 36.4062 60.793C36.4648 59.9727 36.8359 59.5918 37.5195 59.6504C38.2227 59.748 38.7695 60.1875 39.1602 60.9688C39.5508 61.7305 40.0879 62.4238 40.7715 63.0488C41.4551 63.6543 42.2754 64.2109 43.2324 64.7188C45.3613 65.832 47.6855 66.3887 50.2051 66.3887H52.9004V46.1445C52.1973 46.0664 51.5527 46.0273 50.9668 46.0273H49.8535L46.8066 46.2031C45.459 46.2031 44.7852 45.8223 44.7852 45.0605C44.7852 44.123 45.4297 43.6543 46.7188 43.6543L51.5527 43.8594ZM56.3867 28.918C55.9766 28.7812 55.5273 28.6641 55.0391 28.5664L56.3867 28.918Z" fill="#B49F81"/>
</svg>
